<?xml version="1.0" encoding="UTF-8"?>
<svg width="6px" height="10px" viewBox="0 0 6 10" version="1.1" xmlns="http://www.w3.org/2000/svg" xmlns:xlink="http://www.w3.org/1999/xlink">
    <!-- Generator: Sketch 49.3 (51167) - http://www.bohemiancoding.com/sketch -->
    <title>Group 7</title>
    <desc>Created with Sketch.</desc>
    <defs></defs>
    <g id="Page-1" stroke="none" stroke-width="1" fill="none" fill-rule="evenodd">
        <g id="选择场地2" transform="translate(-202.000000, -265.000000)" fill="#000000">
            <g id="Group" transform="translate(148.000000, 255.000000)">
                <g id="Group-2" transform="translate(21.000000, 8.000000)">
                    <g id="Group-7" transform="translate(33.000000, 2.000000)">
                        <path d="M5.09076112,9.98749756 L0.0129271721,5.14254576 C-0.00412039539,5.05397072 -0.0044966925,4.9468523 0.0129271721,4.85754859 L5.09076112,0.0125967901 C5.12995252,-0.0036897635 5.24037828,-0.00470049532 5.38945723,0.0125967901 L5.98684946,0.58259112 C6.00386663,0.731441012 6.00467812,0.838802629 5.98684946,0.867588285 L1.80510386,4.85754859 C1.74511958,4.9457911 1.74392748,5.0535197 1.80510386,5.14254576 L5.98684946,9.13250607 C6.00348602,9.16050817 6.00525862,9.26767705 5.98684946,9.41750323 L5.38945723,9.98749756 C5.24177028,10.0038186 5.13032882,10.0045128 5.09076112,9.98749756 Z" id="arrow" transform="translate(3.000000, 5.000000) rotate(-180.000000) translate(-3.000000, -5.000000) "></path>
                    </g>
                </g>
            </g>
        </g>
    </g>
</svg>