<?xml version="1.0" encoding="UTF-8"?>
<svg width="12px" height="12px" viewBox="0 0 12 12" version="1.1" xmlns="http://www.w3.org/2000/svg" xmlns:xlink="http://www.w3.org/1999/xlink">
    <!-- Generator: Sketch 49.3 (51167) - http://www.bohemiancoding.com/sketch -->
    <title>输入回答</title>
    <desc>Created with Sketch.</desc>
    <defs>
        <polygon id="path-1" points="0 0 12 0 12 12 0 12"></polygon>
    </defs>
    <g id="Page-1" stroke="none" stroke-width="1" fill="none" fill-rule="evenodd">
        <g id="卡券入口-copy-17" transform="translate(-333.000000, -362.000000)">
            <g id="Group" transform="translate(15.000000, 295.000000)">
                <g id="输入回答" transform="translate(318.000000, 67.000000)">
                    <mask id="mask-2" fill="white">
                        <use xlink:href="#path-1"></use>
                    </mask>
                    <g id="Clip-2"></g>
                    <path d="M11.8505086,1.96563326 C11.9334758,2.05005668 11.979278,2.16399657 11.9781686,2.2822211 C11.9769404,2.40044563 11.9288004,2.51343337 11.8444466,2.59619055 L10.5761276,3.84540333 L8.11976236,1.37859688 L9.42385947,0.1250201 C9.60168008,-0.0451359478 9.88291242,-0.0410893363 10.0557804,0.134025794 L11.8505086,1.96563326 Z M1.56583643,7.95572916 C1.80510976,7.71007603 2.04576984,7.46585113 2.28797515,7.22317345 L4.31084315,5.19197283 L7.13445864,2.35506011 L9.59082383,4.83567265 L6.76720835,7.6719506 L5.71585583,8.74081147 C5.39761715,9.05200383 5.08235007,9.36629066 4.77033195,9.68379097 C4.53926023,9.92012102 4.30727723,10.1556973 4.0745018,10.3904801 C3.89046063,10.5753547 3.78138306,10.6807253 3.74623892,10.7069093 C3.65863612,10.7861356 3.55787902,10.8694878 3.44365067,10.9575215 C3.33037323,11.0452377 3.21226199,11.11526 3.08939619,11.1682626 C2.96696622,11.2299536 2.78744188,11.3044986 2.55110053,11.3931273 C2.31444221,11.4806849 2.06744271,11.5662588 1.80863606,11.6500871 C1.55034448,11.7335981 1.30516757,11.8061594 1.07334305,11.8678107 C0.841320427,11.9291843 0.668135507,11.969333 0.554699583,11.9869874 C0.318199747,12.0130126 0.160506775,11.9775453 0.0815810465,11.8808233 C0.00293266738,11.7838237 -0.0187402109,11.6220385 0.0160869555,11.3931273 C0.0334411066,11.2696263 0.0753604946,11.0914167 0.1406961,10.8588159 C0.206309055,10.6258977 0.276716194,10.3839738 0.351006224,10.1332426 C0.42545474,9.88231297 0.497288247,9.65141808 0.567378415,9.43972475 C0.637508204,9.22898357 0.694919539,9.08374196 0.738106811,9.00439663 C0.787475012,8.88740195 0.846907037,8.77489028 0.915451972,8.66813115 C0.981421519,8.56708488 1.07552222,8.45520797 1.19838803,8.3316673 L1.56583643,7.95572916 Z M5.32645721,12 L6.66054767,12 L6.66054767,10.6644595 L5.32645721,10.6644595 L5.32645721,12 Z M7.99594564,12 L9.33067005,12 L9.33067005,10.6644595 L7.99594564,10.6644595 L7.99594564,12 Z M10.6657114,12 L12,12 L12,10.6644595 L10.6657114,10.6644595 L10.6657114,12 Z" id="Fill-1" fill="#C7C7CC" mask="url(#mask-2)"></path>
                </g>
            </g>
        </g>
    </g>
</svg>