<?xml version="1.0" encoding="UTF-8"?>
<svg width="24px" height="24px" viewBox="0 0 24 24" version="1.1" xmlns="http://www.w3.org/2000/svg" xmlns:xlink="http://www.w3.org/1999/xlink">
    <!-- Generator: Sketch 49.3 (51167) - http://www.bohemiancoding.com/sketch -->
    <title>分享(5)</title>
    <desc>Created with Sketch.</desc>
    <defs>
        <polygon id="path-1" points="0.00166666667 0.00302777778 21.9970833 0.00302777778 21.9970833 21.9999722 0.00166666667 21.9999722"></polygon>
    </defs>
    <g id="Page-1" stroke="none" stroke-width="1" fill="none" fill-rule="evenodd">
        <g id="活动1" transform="translate(-27.000000, -621.000000)">
            <g id="Group" transform="translate(15.000000, 617.000000)">
                <g id="share_normal">
                    <g id="Group-2" transform="translate(11.000000, 4.000000)">
                        <g id="分享(5)" transform="translate(1.000000, 0.000000)">
                            <g id="Group-3" transform="translate(0.000000, 2.000000)">
                                <mask id="mask-2" fill="white">
                                    <use xlink:href="#path-1"></use>
                                </mask>
                                <g id="Clip-2"></g>
                                <path d="M21.0489444,10.0533611 C20.4800278,10.0533611 20.1006944,10.4325833 20.1006944,11.0015 C20.1006944,16.0266667 16.0236667,20.1037222 10.9984722,20.1037222 C5.97330556,20.1037222 1.89627778,16.0266667 1.89627778,11.0015 C1.89627778,5.97633333 5.97330556,1.89927778 10.9984722,1.89927778 C11.5673889,1.89927778 11.9466111,1.52005556 11.9466111,0.951138889 C11.9466111,0.38225 11.5673889,0.00302777778 10.9984722,0.00302777778 C4.93033333,0.00302777778 0,4.93336111 0,11.0015 C0,17.0696389 4.93033333,21.9999722 10.9984722,21.9999722 C17.0666111,21.9999722 21.9970833,17.0696389 21.9970833,11.0015 C21.9970833,10.5274167 21.523,10.0533611 21.0489444,10.0533611 Z" id="Fill-1" fill="#939A99" mask="url(#mask-2)"></path>
                            </g>
                            <path d="M14.7467949,0 C14.1623504,0 13.7727779,0.38705946 13.7727779,0.967733704 C13.7727779,1.5483796 14.1623504,1.93546741 14.7467949,1.93546741 L20.6883762,1.93546741 L11.2921794,11.3548272 C10.9026069,11.7418866 10.9026069,12.3225609 11.2921794,12.7097338 C11.4870228,12.9032068 11.7792022,13 11.9740456,13 C12.168889,13 12.4610399,12.9032068 12.6558833,12.7097338 L22.0519944,3.38705379 L22.0519944,9.09674785 C22.0519944,9.67739375 22.441567,10.0645666 23.0259829,10.0645666 C23.6104274,10.0645666 24,9.67739375 24,9.09674785 L24,0 L14.7467949,0 Z" id="Fill-4" fill="#939A99"></path>
                        </g>
                    </g>
                </g>
            </g>
        </g>
    </g>
</svg>